<mxfile host="app.diagrams.net" modified="2023-12-24T15:38:45.853Z" agent="Mozilla/5.0 (Windows NT 10.0; Win64; x64) AppleWebKit/537.36 (KHTML, like Gecko) Chrome/120.0.0.0 Safari/537.36" version="22.1.11" etag="TC92F-vpPICO8GXzb2xu" type="device">
  <diagram id="knLEHiZ6or30d7whpRMh" name="Страница — 1">
    <mxGraphModel dx="3069" dy="2777" grid="1" gridSize="10" guides="1" tooltips="1" connect="1" arrows="1" fold="1" page="0" pageScale="1" pageWidth="827" pageHeight="1169" background="none" math="0" shadow="0">
      <root>
        <mxCell id="0" />
        <mxCell id="1" parent="0" />
        <mxCell id="3leS1upFtWtPrm7WEBsY-1" value="" style="rounded=1;whiteSpace=wrap;html=1;" vertex="1" parent="1">
          <mxGeometry x="-90" y="-1260" width="990" height="1860" as="geometry" />
        </mxCell>
        <mxCell id="3leS1upFtWtPrm7WEBsY-23" style="rounded=0;orthogonalLoop=1;jettySize=auto;html=1;entryX=0;entryY=0.5;entryDx=0;entryDy=0;endArrow=none;endFill=0;" edge="1" parent="1" source="3leS1upFtWtPrm7WEBsY-3" target="3leS1upFtWtPrm7WEBsY-5">
          <mxGeometry relative="1" as="geometry" />
        </mxCell>
        <mxCell id="3leS1upFtWtPrm7WEBsY-29" style="rounded=0;orthogonalLoop=1;jettySize=auto;html=1;entryX=0;entryY=0.5;entryDx=0;entryDy=0;endArrow=none;endFill=0;" edge="1" parent="1" source="3leS1upFtWtPrm7WEBsY-3" target="3leS1upFtWtPrm7WEBsY-8">
          <mxGeometry relative="1" as="geometry" />
        </mxCell>
        <mxCell id="3leS1upFtWtPrm7WEBsY-30" style="rounded=0;orthogonalLoop=1;jettySize=auto;html=1;exitX=1;exitY=0.3333333333333333;exitDx=0;exitDy=0;exitPerimeter=0;entryX=0;entryY=0.5;entryDx=0;entryDy=0;endArrow=none;endFill=0;" edge="1" parent="1" source="3leS1upFtWtPrm7WEBsY-3" target="3leS1upFtWtPrm7WEBsY-10">
          <mxGeometry relative="1" as="geometry" />
        </mxCell>
        <mxCell id="3leS1upFtWtPrm7WEBsY-31" style="rounded=0;orthogonalLoop=1;jettySize=auto;html=1;exitX=1;exitY=0.3333333333333333;exitDx=0;exitDy=0;exitPerimeter=0;entryX=0;entryY=0.5;entryDx=0;entryDy=0;endArrow=none;endFill=0;" edge="1" parent="1" source="3leS1upFtWtPrm7WEBsY-3" target="3leS1upFtWtPrm7WEBsY-9">
          <mxGeometry relative="1" as="geometry" />
        </mxCell>
        <mxCell id="3leS1upFtWtPrm7WEBsY-32" style="rounded=0;orthogonalLoop=1;jettySize=auto;html=1;entryX=0;entryY=0.5;entryDx=0;entryDy=0;endArrow=none;endFill=0;" edge="1" parent="1" source="3leS1upFtWtPrm7WEBsY-3" target="3leS1upFtWtPrm7WEBsY-11">
          <mxGeometry relative="1" as="geometry" />
        </mxCell>
        <mxCell id="3leS1upFtWtPrm7WEBsY-33" style="rounded=0;orthogonalLoop=1;jettySize=auto;html=1;exitX=1;exitY=0.3333333333333333;exitDx=0;exitDy=0;exitPerimeter=0;entryX=0;entryY=0.5;entryDx=0;entryDy=0;endArrow=none;endFill=0;" edge="1" parent="1" source="3leS1upFtWtPrm7WEBsY-3" target="3leS1upFtWtPrm7WEBsY-12">
          <mxGeometry relative="1" as="geometry" />
        </mxCell>
        <mxCell id="3leS1upFtWtPrm7WEBsY-34" style="rounded=0;orthogonalLoop=1;jettySize=auto;html=1;entryX=0;entryY=0.5;entryDx=0;entryDy=0;endArrow=none;endFill=0;" edge="1" parent="1" target="3leS1upFtWtPrm7WEBsY-13">
          <mxGeometry relative="1" as="geometry">
            <mxPoint x="-490" y="-370" as="sourcePoint" />
          </mxGeometry>
        </mxCell>
        <mxCell id="3leS1upFtWtPrm7WEBsY-35" style="rounded=0;orthogonalLoop=1;jettySize=auto;html=1;entryX=0;entryY=0.5;entryDx=0;entryDy=0;endArrow=none;endFill=0;" edge="1" parent="1" target="3leS1upFtWtPrm7WEBsY-14">
          <mxGeometry relative="1" as="geometry">
            <mxPoint x="-500" y="-380" as="sourcePoint" />
          </mxGeometry>
        </mxCell>
        <mxCell id="3leS1upFtWtPrm7WEBsY-36" style="rounded=0;orthogonalLoop=1;jettySize=auto;html=1;entryX=0;entryY=0.5;entryDx=0;entryDy=0;endArrow=none;endFill=0;" edge="1" parent="1" source="3leS1upFtWtPrm7WEBsY-3" target="3leS1upFtWtPrm7WEBsY-15">
          <mxGeometry relative="1" as="geometry" />
        </mxCell>
        <mxCell id="3leS1upFtWtPrm7WEBsY-53" style="rounded=0;orthogonalLoop=1;jettySize=auto;html=1;entryX=0;entryY=0.5;entryDx=0;entryDy=0;endArrow=none;endFill=0;" edge="1" parent="1" source="3leS1upFtWtPrm7WEBsY-3" target="3leS1upFtWtPrm7WEBsY-51">
          <mxGeometry relative="1" as="geometry" />
        </mxCell>
        <mxCell id="3leS1upFtWtPrm7WEBsY-3" value="Employee" style="shape=umlActor;verticalLabelPosition=bottom;verticalAlign=top;html=1;outlineConnect=0;" vertex="1" parent="1">
          <mxGeometry x="-580" y="-420" width="80" height="120" as="geometry" />
        </mxCell>
        <mxCell id="3leS1upFtWtPrm7WEBsY-5" value="View Seats" style="ellipse;whiteSpace=wrap;html=1;" vertex="1" parent="1">
          <mxGeometry x="280" y="-750" width="260" height="150" as="geometry" />
        </mxCell>
        <mxCell id="3leS1upFtWtPrm7WEBsY-8" value="Retrun tickets" style="ellipse;whiteSpace=wrap;html=1;" vertex="1" parent="1">
          <mxGeometry x="270" y="170" width="270" height="150" as="geometry" />
        </mxCell>
        <mxCell id="3leS1upFtWtPrm7WEBsY-9" value="Edit Film&lt;span style=&quot;white-space: pre;&quot;&gt;&#x9;&lt;/span&gt;&lt;span style=&quot;white-space: pre;&quot;&gt;&#x9;&lt;/span&gt;" style="ellipse;whiteSpace=wrap;html=1;" vertex="1" parent="1">
          <mxGeometry x="262.5" y="-1240" width="205" height="150" as="geometry" />
        </mxCell>
        <mxCell id="3leS1upFtWtPrm7WEBsY-10" value="Buy tickets" style="ellipse;whiteSpace=wrap;html=1;" vertex="1" parent="1">
          <mxGeometry x="270" y="-20" width="270" height="150" as="geometry" />
        </mxCell>
        <mxCell id="3leS1upFtWtPrm7WEBsY-11" value="Edit session&lt;span style=&quot;white-space: pre;&quot;&gt;&#x9;&lt;/span&gt;" style="ellipse;whiteSpace=wrap;html=1;" vertex="1" parent="1">
          <mxGeometry x="280" y="-580" width="280" height="150" as="geometry" />
        </mxCell>
        <mxCell id="3leS1upFtWtPrm7WEBsY-12" value="Mark ticket as visited" style="ellipse;whiteSpace=wrap;html=1;" vertex="1" parent="1">
          <mxGeometry x="260" y="390" width="270" height="150" as="geometry" />
        </mxCell>
        <mxCell id="3leS1upFtWtPrm7WEBsY-13" value="Add Film&lt;span style=&quot;white-space: pre;&quot;&gt;&#x9;&lt;/span&gt;" style="ellipse;whiteSpace=wrap;html=1;" vertex="1" parent="1">
          <mxGeometry x="250" y="-1080" width="230" height="150" as="geometry" />
        </mxCell>
        <mxCell id="3leS1upFtWtPrm7WEBsY-14" value="Add Session" style="ellipse;whiteSpace=wrap;html=1;" vertex="1" parent="1">
          <mxGeometry x="310" y="-405" width="260" height="150" as="geometry" />
        </mxCell>
        <mxCell id="3leS1upFtWtPrm7WEBsY-15" value="Delete Film" style="ellipse;whiteSpace=wrap;html=1;" vertex="1" parent="1">
          <mxGeometry x="250" y="-910" width="250" height="150" as="geometry" />
        </mxCell>
        <mxCell id="3leS1upFtWtPrm7WEBsY-16" value="Film storage (JSON)" style="shape=umlActor;verticalLabelPosition=bottom;verticalAlign=top;html=1;outlineConnect=0;" vertex="1" parent="1">
          <mxGeometry x="1130" y="-980" width="110" height="150" as="geometry" />
        </mxCell>
        <mxCell id="3leS1upFtWtPrm7WEBsY-18" value="Session&amp;nbsp;storage (JSON)" style="shape=umlActor;verticalLabelPosition=bottom;verticalAlign=top;html=1;outlineConnect=0;" vertex="1" parent="1">
          <mxGeometry x="1160" y="-580" width="110" height="150" as="geometry" />
        </mxCell>
        <mxCell id="3leS1upFtWtPrm7WEBsY-22" value="Tickets storage (JSON)" style="shape=umlActor;verticalLabelPosition=bottom;verticalAlign=top;html=1;outlineConnect=0;" vertex="1" parent="1">
          <mxGeometry x="1160" y="40" width="110" height="150" as="geometry" />
        </mxCell>
        <mxCell id="3leS1upFtWtPrm7WEBsY-37" style="rounded=0;orthogonalLoop=1;jettySize=auto;html=1;entryX=0;entryY=0.3333333333333333;entryDx=0;entryDy=0;entryPerimeter=0;endArrow=none;endFill=0;" edge="1" parent="1" source="3leS1upFtWtPrm7WEBsY-10" target="3leS1upFtWtPrm7WEBsY-18">
          <mxGeometry relative="1" as="geometry" />
        </mxCell>
        <mxCell id="3leS1upFtWtPrm7WEBsY-38" style="rounded=0;orthogonalLoop=1;jettySize=auto;html=1;entryX=0;entryY=0.3333333333333333;entryDx=0;entryDy=0;entryPerimeter=0;endArrow=none;endFill=0;" edge="1" parent="1" source="3leS1upFtWtPrm7WEBsY-10" target="3leS1upFtWtPrm7WEBsY-22">
          <mxGeometry relative="1" as="geometry" />
        </mxCell>
        <mxCell id="3leS1upFtWtPrm7WEBsY-40" style="rounded=0;orthogonalLoop=1;jettySize=auto;html=1;entryX=0;entryY=0.3333333333333333;entryDx=0;entryDy=0;entryPerimeter=0;endArrow=none;endFill=0;" edge="1" parent="1" source="3leS1upFtWtPrm7WEBsY-8" target="3leS1upFtWtPrm7WEBsY-18">
          <mxGeometry relative="1" as="geometry" />
        </mxCell>
        <mxCell id="3leS1upFtWtPrm7WEBsY-41" style="rounded=0;orthogonalLoop=1;jettySize=auto;html=1;entryX=0;entryY=0.3333333333333333;entryDx=0;entryDy=0;entryPerimeter=0;endArrow=none;endFill=0;" edge="1" parent="1" source="3leS1upFtWtPrm7WEBsY-8" target="3leS1upFtWtPrm7WEBsY-22">
          <mxGeometry relative="1" as="geometry" />
        </mxCell>
        <mxCell id="3leS1upFtWtPrm7WEBsY-42" style="rounded=0;orthogonalLoop=1;jettySize=auto;html=1;entryX=0;entryY=0.3333333333333333;entryDx=0;entryDy=0;entryPerimeter=0;" edge="1" parent="1" source="3leS1upFtWtPrm7WEBsY-9" target="3leS1upFtWtPrm7WEBsY-16">
          <mxGeometry relative="1" as="geometry" />
        </mxCell>
        <mxCell id="3leS1upFtWtPrm7WEBsY-43" style="rounded=0;orthogonalLoop=1;jettySize=auto;html=1;entryX=0;entryY=0.3333333333333333;entryDx=0;entryDy=0;entryPerimeter=0;endArrow=none;endFill=0;" edge="1" parent="1" source="3leS1upFtWtPrm7WEBsY-5" target="3leS1upFtWtPrm7WEBsY-18">
          <mxGeometry relative="1" as="geometry" />
        </mxCell>
        <mxCell id="3leS1upFtWtPrm7WEBsY-45" style="rounded=0;orthogonalLoop=1;jettySize=auto;html=1;entryX=0;entryY=0.3333333333333333;entryDx=0;entryDy=0;entryPerimeter=0;endArrow=none;endFill=0;" edge="1" parent="1" source="3leS1upFtWtPrm7WEBsY-11" target="3leS1upFtWtPrm7WEBsY-18">
          <mxGeometry relative="1" as="geometry" />
        </mxCell>
        <mxCell id="3leS1upFtWtPrm7WEBsY-46" style="rounded=0;orthogonalLoop=1;jettySize=auto;html=1;entryX=0;entryY=0.3333333333333333;entryDx=0;entryDy=0;entryPerimeter=0;endArrow=none;endFill=0;" edge="1" parent="1" source="3leS1upFtWtPrm7WEBsY-12" target="3leS1upFtWtPrm7WEBsY-22">
          <mxGeometry relative="1" as="geometry" />
        </mxCell>
        <mxCell id="3leS1upFtWtPrm7WEBsY-48" style="rounded=0;orthogonalLoop=1;jettySize=auto;html=1;entryX=0;entryY=0.3333333333333333;entryDx=0;entryDy=0;entryPerimeter=0;endArrow=classic;endFill=1;" edge="1" parent="1" source="3leS1upFtWtPrm7WEBsY-13" target="3leS1upFtWtPrm7WEBsY-16">
          <mxGeometry relative="1" as="geometry" />
        </mxCell>
        <mxCell id="3leS1upFtWtPrm7WEBsY-51" value="Delete Session" style="ellipse;whiteSpace=wrap;html=1;" vertex="1" parent="1">
          <mxGeometry x="290" y="-220" width="240" height="150" as="geometry" />
        </mxCell>
        <mxCell id="3leS1upFtWtPrm7WEBsY-54" style="rounded=0;orthogonalLoop=1;jettySize=auto;html=1;entryX=0;entryY=0.3333333333333333;entryDx=0;entryDy=0;entryPerimeter=0;endArrow=none;endFill=0;" edge="1" parent="1" source="3leS1upFtWtPrm7WEBsY-14" target="3leS1upFtWtPrm7WEBsY-18">
          <mxGeometry relative="1" as="geometry" />
        </mxCell>
        <mxCell id="3leS1upFtWtPrm7WEBsY-55" style="rounded=0;orthogonalLoop=1;jettySize=auto;html=1;entryX=0;entryY=0.3333333333333333;entryDx=0;entryDy=0;entryPerimeter=0;endArrow=none;endFill=0;exitX=1;exitY=0;exitDx=0;exitDy=0;" edge="1" parent="1" source="3leS1upFtWtPrm7WEBsY-15" target="3leS1upFtWtPrm7WEBsY-16">
          <mxGeometry relative="1" as="geometry" />
        </mxCell>
        <mxCell id="3leS1upFtWtPrm7WEBsY-56" style="rounded=0;orthogonalLoop=1;jettySize=auto;html=1;endArrow=none;endFill=0;exitX=1;exitY=0.5;exitDx=0;exitDy=0;entryX=0;entryY=0.3333333333333333;entryDx=0;entryDy=0;entryPerimeter=0;" edge="1" parent="1" source="3leS1upFtWtPrm7WEBsY-51" target="3leS1upFtWtPrm7WEBsY-18">
          <mxGeometry relative="1" as="geometry">
            <mxPoint x="509.88124580824933" y="440.00529949351767" as="sourcePoint" />
            <mxPoint x="1170" y="-600" as="targetPoint" />
          </mxGeometry>
        </mxCell>
        <mxCell id="3leS1upFtWtPrm7WEBsY-57" value="Input information for Search" style="ellipse;whiteSpace=wrap;html=1;" vertex="1" parent="1">
          <mxGeometry x="-110" y="-1390" width="210" height="80" as="geometry" />
        </mxCell>
      </root>
    </mxGraphModel>
  </diagram>
</mxfile>
